<mxfile host="www.draw.io" modified="2020-03-11T07:16:08.480Z" agent="Mozilla/5.0 (Windows NT 10.0; Win64; x64) AppleWebKit/537.36 (KHTML, like Gecko) Chrome/79.0.3945.88 Safari/537.36" etag="8yutuCmp_CaThzeGZxhA" version="12.8.2" type="github">
  <diagram id="Or4aAMLVj88O0oJk9o6u" name="第 1 页">
    <mxGraphModel dx="1422" dy="772" grid="1" gridSize="10" guides="1" tooltips="1" connect="1" arrows="1" fold="1" page="1" pageScale="1" pageWidth="3000" pageHeight="2000" math="0" shadow="0">
      <root>
        <mxCell id="0" />
        <mxCell id="1" parent="0" />
        <mxCell id="iIl-OaGfOnOeiOTD3pTd-2" value="&lt;font style=&quot;font-size: 22px&quot;&gt;apollo-sjs-manager&lt;/font&gt;" style="rounded=1;whiteSpace=wrap;html=1;" parent="1" vertex="1">
          <mxGeometry x="810.75" y="410" width="240" height="60" as="geometry" />
        </mxCell>
        <mxCell id="iIl-OaGfOnOeiOTD3pTd-3" value="&lt;font style=&quot;font-size: 17px&quot;&gt;Mysql（sys_manager）&lt;/font&gt;" style="shape=cylinder;whiteSpace=wrap;html=1;boundedLbl=1;backgroundOutline=1;" parent="1" vertex="1">
          <mxGeometry x="830.75" y="250" width="200" height="80" as="geometry" />
        </mxCell>
        <mxCell id="iIl-OaGfOnOeiOTD3pTd-4" value="" style="endArrow=classic;html=1;exitX=0.5;exitY=0;exitDx=0;exitDy=0;entryX=0.5;entryY=1;entryDx=0;entryDy=0;" parent="1" source="iIl-OaGfOnOeiOTD3pTd-2" target="iIl-OaGfOnOeiOTD3pTd-3" edge="1">
          <mxGeometry width="50" height="50" relative="1" as="geometry">
            <mxPoint x="890.75" y="540" as="sourcePoint" />
            <mxPoint x="940.75" y="490" as="targetPoint" />
          </mxGeometry>
        </mxCell>
        <mxCell id="iIl-OaGfOnOeiOTD3pTd-5" value="&lt;font style=&quot;font-size: 22px&quot;&gt;apollo-cache-proxy&lt;/font&gt;" style="rounded=1;whiteSpace=wrap;html=1;" parent="1" vertex="1">
          <mxGeometry x="825.75" y="540" width="210" height="60" as="geometry" />
        </mxCell>
        <mxCell id="iIl-OaGfOnOeiOTD3pTd-6" value="" style="endArrow=classic;html=1;exitX=0.5;exitY=1;exitDx=0;exitDy=0;entryX=0.5;entryY=0;entryDx=0;entryDy=0;" parent="1" source="iIl-OaGfOnOeiOTD3pTd-2" target="iIl-OaGfOnOeiOTD3pTd-5" edge="1">
          <mxGeometry width="50" height="50" relative="1" as="geometry">
            <mxPoint x="1110.75" y="530" as="sourcePoint" />
            <mxPoint x="1160.75" y="480" as="targetPoint" />
          </mxGeometry>
        </mxCell>
        <mxCell id="iIl-OaGfOnOeiOTD3pTd-7" value="&lt;font style=&quot;font-size: 20px&quot;&gt;Redis&lt;/font&gt;" style="ellipse;shape=cloud;whiteSpace=wrap;html=1;" parent="1" vertex="1">
          <mxGeometry x="1130.75" y="526" width="120" height="80" as="geometry" />
        </mxCell>
        <mxCell id="iIl-OaGfOnOeiOTD3pTd-8" value="" style="endArrow=classic;html=1;exitX=1;exitY=0.5;exitDx=0;exitDy=0;entryX=0.16;entryY=0.55;entryDx=0;entryDy=0;entryPerimeter=0;" parent="1" source="iIl-OaGfOnOeiOTD3pTd-5" target="iIl-OaGfOnOeiOTD3pTd-7" edge="1">
          <mxGeometry width="50" height="50" relative="1" as="geometry">
            <mxPoint x="1270.75" y="680" as="sourcePoint" />
            <mxPoint x="1320.75" y="630" as="targetPoint" />
          </mxGeometry>
        </mxCell>
        <mxCell id="iIl-OaGfOnOeiOTD3pTd-9" value="&lt;font style=&quot;font-size: 22px&quot;&gt;apollo-sjs-client&lt;/font&gt;" style="rounded=1;whiteSpace=wrap;html=1;" parent="1" vertex="1">
          <mxGeometry x="1110.75" y="410" width="200" height="60" as="geometry" />
        </mxCell>
        <mxCell id="iIl-OaGfOnOeiOTD3pTd-14" value="" style="group" parent="1" vertex="1" connectable="0">
          <mxGeometry x="1390.75" y="365" width="220" height="150" as="geometry" />
        </mxCell>
        <mxCell id="iIl-OaGfOnOeiOTD3pTd-13" value="" style="rounded=0;whiteSpace=wrap;html=1;fillColor=none;dashed=1;" parent="iIl-OaGfOnOeiOTD3pTd-14" vertex="1">
          <mxGeometry width="220" height="151" as="geometry" />
        </mxCell>
        <mxCell id="iIl-OaGfOnOeiOTD3pTd-11" value="&lt;font style=&quot;font-size: 20px&quot;&gt;spark-job-server&lt;/font&gt;" style="rounded=0;whiteSpace=wrap;html=1;" parent="iIl-OaGfOnOeiOTD3pTd-14" vertex="1">
          <mxGeometry x="10" y="10" width="200" height="60" as="geometry" />
        </mxCell>
        <mxCell id="iIl-OaGfOnOeiOTD3pTd-12" value="&lt;font style=&quot;font-size: 20px&quot;&gt;spark-job-server&lt;/font&gt;" style="rounded=0;whiteSpace=wrap;html=1;" parent="iIl-OaGfOnOeiOTD3pTd-14" vertex="1">
          <mxGeometry x="10" y="80" width="200" height="60" as="geometry" />
        </mxCell>
        <mxCell id="iIl-OaGfOnOeiOTD3pTd-15" value="" style="endArrow=classic;html=1;exitX=1;exitY=0.5;exitDx=0;exitDy=0;entryX=0;entryY=0.5;entryDx=0;entryDy=0;" parent="1" source="iIl-OaGfOnOeiOTD3pTd-2" target="iIl-OaGfOnOeiOTD3pTd-9" edge="1">
          <mxGeometry width="50" height="50" relative="1" as="geometry">
            <mxPoint x="1060.75" y="530" as="sourcePoint" />
            <mxPoint x="1110.75" y="480" as="targetPoint" />
          </mxGeometry>
        </mxCell>
        <mxCell id="iIl-OaGfOnOeiOTD3pTd-16" value="" style="endArrow=classic;html=1;exitX=1;exitY=0.5;exitDx=0;exitDy=0;" parent="1" source="iIl-OaGfOnOeiOTD3pTd-9" target="iIl-OaGfOnOeiOTD3pTd-13" edge="1">
          <mxGeometry width="50" height="50" relative="1" as="geometry">
            <mxPoint x="1340.75" y="570" as="sourcePoint" />
            <mxPoint x="1390.75" y="520" as="targetPoint" />
          </mxGeometry>
        </mxCell>
        <mxCell id="iIl-OaGfOnOeiOTD3pTd-17" value="&lt;font style=&quot;font-size: 17px&quot;&gt;Mysql（spark_job_server）&lt;/font&gt;" style="shape=cylinder;whiteSpace=wrap;html=1;boundedLbl=1;backgroundOutline=1;" parent="1" vertex="1">
          <mxGeometry x="1385.75" y="240" width="230" height="80" as="geometry" />
        </mxCell>
        <mxCell id="iIl-OaGfOnOeiOTD3pTd-19" value="" style="endArrow=classic;html=1;exitX=0.5;exitY=0;exitDx=0;exitDy=0;entryX=0.5;entryY=1;entryDx=0;entryDy=0;" parent="1" source="iIl-OaGfOnOeiOTD3pTd-13" target="iIl-OaGfOnOeiOTD3pTd-17" edge="1">
          <mxGeometry width="50" height="50" relative="1" as="geometry">
            <mxPoint x="1510.75" y="610" as="sourcePoint" />
            <mxPoint x="1560.75" y="560" as="targetPoint" />
          </mxGeometry>
        </mxCell>
        <mxCell id="iIl-OaGfOnOeiOTD3pTd-20" value="&lt;font style=&quot;font-size: 16px&quot;&gt;HDFS&lt;br&gt;（sjs-app-framework）&lt;/font&gt;" style="shape=process;whiteSpace=wrap;html=1;backgroundOutline=1;fillColor=none;" parent="1" vertex="1">
          <mxGeometry x="1730.75" y="362" width="220" height="60" as="geometry" />
        </mxCell>
        <mxCell id="iIl-OaGfOnOeiOTD3pTd-21" value="" style="endArrow=classic;html=1;exitX=0;exitY=0.5;exitDx=0;exitDy=0;entryX=1.002;entryY=0.18;entryDx=0;entryDy=0;entryPerimeter=0;" parent="1" source="iIl-OaGfOnOeiOTD3pTd-20" target="iIl-OaGfOnOeiOTD3pTd-13" edge="1">
          <mxGeometry width="50" height="50" relative="1" as="geometry">
            <mxPoint x="1860.75" y="570" as="sourcePoint" />
            <mxPoint x="1910.75" y="520" as="targetPoint" />
          </mxGeometry>
        </mxCell>
        <mxCell id="iIl-OaGfOnOeiOTD3pTd-22" value="&lt;font style=&quot;font-size: 18px&quot;&gt;Yarn Cluster&lt;/font&gt;" style="ellipse;whiteSpace=wrap;html=1;fillColor=none;" parent="1" vertex="1">
          <mxGeometry x="1770.75" y="450" width="160" height="58" as="geometry" />
        </mxCell>
        <mxCell id="iIl-OaGfOnOeiOTD3pTd-23" value="" style="endArrow=classic;html=1;exitX=1;exitY=0.75;exitDx=0;exitDy=0;entryX=0;entryY=0.5;entryDx=0;entryDy=0;" parent="1" source="iIl-OaGfOnOeiOTD3pTd-13" target="iIl-OaGfOnOeiOTD3pTd-22" edge="1">
          <mxGeometry width="50" height="50" relative="1" as="geometry">
            <mxPoint x="1640.75" y="560" as="sourcePoint" />
            <mxPoint x="1690.75" y="510" as="targetPoint" />
          </mxGeometry>
        </mxCell>
        <mxCell id="iIl-OaGfOnOeiOTD3pTd-24" value="&lt;font style=&quot;font-size: 18px&quot;&gt;1.&amp;nbsp;sjs-app-multi-sources-sql&lt;br&gt;2.&amp;nbsp;sjs-app-schedule-report&lt;/font&gt;" style="text;html=1;strokeColor=#d6b656;fillColor=#fff2cc;align=center;verticalAlign=middle;whiteSpace=wrap;rounded=0;" parent="1" vertex="1">
          <mxGeometry x="1725.75" y="290" width="230" height="60" as="geometry" />
        </mxCell>
        <mxCell id="s-hELL647XPYL0NITJ2v-2" value="&lt;font style=&quot;font-size: 22px&quot;&gt;apollo-route-engine&lt;/font&gt;" style="rounded=1;whiteSpace=wrap;html=1;" vertex="1" parent="1">
          <mxGeometry x="490.75" y="410" width="219" height="60" as="geometry" />
        </mxCell>
        <mxCell id="s-hELL647XPYL0NITJ2v-3" value="" style="endArrow=classic;html=1;exitX=1;exitY=0.5;exitDx=0;exitDy=0;" edge="1" parent="1" source="s-hELL647XPYL0NITJ2v-2" target="iIl-OaGfOnOeiOTD3pTd-2">
          <mxGeometry width="50" height="50" relative="1" as="geometry">
            <mxPoint x="720.75" y="570" as="sourcePoint" />
            <mxPoint x="770.75" y="520" as="targetPoint" />
          </mxGeometry>
        </mxCell>
        <mxCell id="s-hELL647XPYL0NITJ2v-4" value="&lt;font style=&quot;font-size: 22px&quot;&gt;apollo-request-parser&lt;/font&gt;" style="rounded=1;whiteSpace=wrap;html=1;" vertex="1" parent="1">
          <mxGeometry x="470" y="540" width="260.5" height="60" as="geometry" />
        </mxCell>
        <mxCell id="s-hELL647XPYL0NITJ2v-6" value="" style="endArrow=classic;html=1;exitX=0.5;exitY=0;exitDx=0;exitDy=0;" edge="1" parent="1" source="s-hELL647XPYL0NITJ2v-4" target="s-hELL647XPYL0NITJ2v-2">
          <mxGeometry width="50" height="50" relative="1" as="geometry">
            <mxPoint x="670.75" y="530" as="sourcePoint" />
            <mxPoint x="720.75" y="480" as="targetPoint" />
          </mxGeometry>
        </mxCell>
        <mxCell id="s-hELL647XPYL0NITJ2v-7" value="&lt;font style=&quot;font-size: 22px&quot;&gt;apollo-http-gateway&lt;/font&gt;" style="rounded=1;whiteSpace=wrap;html=1;" vertex="1" parent="1">
          <mxGeometry x="140" y="410" width="250" height="60" as="geometry" />
        </mxCell>
        <mxCell id="s-hELL647XPYL0NITJ2v-8" value="" style="endArrow=classic;html=1;exitX=1;exitY=0.5;exitDx=0;exitDy=0;" edge="1" parent="1" source="s-hELL647XPYL0NITJ2v-7" target="s-hELL647XPYL0NITJ2v-2">
          <mxGeometry width="50" height="50" relative="1" as="geometry">
            <mxPoint x="290" y="580" as="sourcePoint" />
            <mxPoint x="340" y="530" as="targetPoint" />
          </mxGeometry>
        </mxCell>
        <mxCell id="s-hELL647XPYL0NITJ2v-9" value="1" style="text;strokeColor=none;fillColor=none;html=1;fontSize=24;fontStyle=1;verticalAlign=middle;align=center;" vertex="1" parent="1">
          <mxGeometry x="410" y="390" width="50" height="38" as="geometry" />
        </mxCell>
        <mxCell id="s-hELL647XPYL0NITJ2v-10" value="2" style="text;strokeColor=none;fillColor=none;html=1;fontSize=24;fontStyle=1;verticalAlign=middle;align=center;" vertex="1" parent="1">
          <mxGeometry x="610" y="488" width="50" height="38" as="geometry" />
        </mxCell>
        <mxCell id="s-hELL647XPYL0NITJ2v-11" value="3" style="text;strokeColor=none;fillColor=none;html=1;fontSize=24;fontStyle=1;verticalAlign=middle;align=center;" vertex="1" parent="1">
          <mxGeometry x="730.5" y="384" width="50" height="38" as="geometry" />
        </mxCell>
        <mxCell id="s-hELL647XPYL0NITJ2v-14" value="5" style="text;strokeColor=none;fillColor=none;html=1;fontSize=24;fontStyle=1;verticalAlign=middle;align=center;" vertex="1" parent="1">
          <mxGeometry x="1050.75" y="384" width="50" height="38" as="geometry" />
        </mxCell>
        <mxCell id="s-hELL647XPYL0NITJ2v-15" value="4" style="text;strokeColor=none;fillColor=none;html=1;fontSize=24;fontStyle=1;verticalAlign=middle;align=center;" vertex="1" parent="1">
          <mxGeometry x="950" y="488" width="50" height="38" as="geometry" />
        </mxCell>
        <mxCell id="s-hELL647XPYL0NITJ2v-16" value="6" style="text;strokeColor=none;fillColor=none;html=1;fontSize=24;fontStyle=1;verticalAlign=middle;align=center;" vertex="1" parent="1">
          <mxGeometry x="1320" y="384" width="50" height="38" as="geometry" />
        </mxCell>
        <mxCell id="s-hELL647XPYL0NITJ2v-17" value="7" style="text;strokeColor=none;fillColor=none;html=1;fontSize=24;fontStyle=1;verticalAlign=middle;align=center;" vertex="1" parent="1">
          <mxGeometry x="1650" y="346" width="50" height="38" as="geometry" />
        </mxCell>
        <mxCell id="s-hELL647XPYL0NITJ2v-20" value="8" style="text;strokeColor=none;fillColor=none;html=1;fontSize=24;fontStyle=1;verticalAlign=middle;align=center;" vertex="1" parent="1">
          <mxGeometry x="1660" y="432" width="50" height="38" as="geometry" />
        </mxCell>
      </root>
    </mxGraphModel>
  </diagram>
</mxfile>
